<svg width="196" height="39" viewBox="0 0 196 39" fill="none" xmlns="http://www.w3.org/2000/svg">
<path d="M2.024 2.172C2.1392 2.1432 2.456 2.0424 2.9744 1.8696C3.5216 1.668 3.8528 1.5528 3.968 1.524C4.0832 1.4952 4.3712 1.4088 4.832 1.2648C5.3216 1.1208 5.6384 1.0344 5.7824 1.0056C5.9552 0.947999 6.2432 0.875999 6.6464 0.789598C7.0784 0.674398 7.4096 0.602398 7.64 0.573599C7.8704 0.515998 8.1872 0.458398 8.5904 0.400798C8.9936 0.343199 9.3536 0.299999 9.6704 0.271197C10.304 0.213598 11.096 0.184798 12.0464 0.184798C14.2064 0.184798 16.3376 0.818398 18.44 2.0856C19.304 2.604 19.736 3.0792 19.736 3.5112C19.736 3.9432 19.6352 4.26 19.4336 4.4616C19.2608 4.6632 18.9584 4.764 18.5264 4.764C18.1232 4.764 17.7776 4.6776 17.4896 4.5048C15.56 3.3528 13.7744 2.7768 12.1328 2.7768C10.4912 2.7768 9.0368 2.9208 7.7696 3.2088C6.5312 3.4968 4.9472 3.9576 3.0176 4.5912C2.5568 4.7064 2.2256 4.764 2.024 4.764C1.16 4.764 0.728 4.332 0.728 3.468C0.728 2.892 1.16 2.46 2.024 2.172ZM10.664 22.8648L12.0464 22.908C14.1488 22.908 16.5536 21.9288 19.2608 19.9704C19.4912 19.7976 19.7936 19.7112 20.168 19.7112C21.032 19.7112 21.464 20.1432 21.464 21.0072C21.464 21.324 21.1184 21.7416 20.4272 22.26C17.5184 24.42 14.8256 25.5 12.3488 25.5C9.9008 25.5 8.0576 25.212 6.8192 24.636C5.5808 24.06 4.6304 23.1672 3.968 21.9576C3.824 21.6696 3.752 21.3816 3.752 21.0936C3.752 20.2296 4.184 19.7976 5.048 19.7976C5.4224 19.7976 5.7248 19.956 5.9552 20.2728C6.2144 20.5608 6.344 20.7624 6.344 20.8776C6.6032 21.396 7.1648 21.8856 8.0288 22.3464C7.7696 19.236 7.64 15.9672 7.64 12.54V7.356C7.64 6.492 8.072 6.06 8.936 6.06C9.8 6.06 10.232 6.492 10.232 7.356V12.54C10.232 15.6216 10.3472 18.588 10.5776 21.4392L10.664 22.8648ZM29.2214 38.9784C28.4438 38.9784 28.0118 38.5464 27.9254 37.6824C27.7814 36.1848 27.2342 32.7 26.2838 27.228C25.3622 21.7848 24.9014 18.4728 24.9014 17.292C24.9014 15.1032 25.9238 13.332 27.9686 11.9784C30.0134 10.6248 32.303 9.948 34.8374 9.948C36.7382 9.948 38.2934 10.4952 39.503 11.5896C40.7126 12.684 41.3174 14.1528 41.3174 15.996C41.3174 17.0904 41.0006 18.0984 40.367 19.02C39.7622 19.9416 39.0278 20.6616 38.1638 21.18C36.3206 22.332 34.7798 22.908 33.5414 22.908C32.6774 22.908 32.2454 22.476 32.2454 21.612C32.2454 20.8344 32.6774 20.4168 33.5414 20.3592C34.4342 20.2728 35.5142 19.812 36.7814 18.9768C38.0774 18.1416 38.7254 17.1624 38.7254 16.0392C38.7254 14.8872 38.3798 14.0232 37.6886 13.4472C36.9974 12.8424 35.903 12.54 34.4054 12.54C32.9366 12.54 31.4102 12.972 29.8262 13.836C28.271 14.7 27.4934 15.7944 27.4934 17.1192C27.4934 18.444 28.0982 22.62 29.3078 29.6472L29.783 26.796C29.927 25.932 30.359 25.5 31.079 25.5C31.943 25.5 32.375 25.932 32.375 26.796C32.375 26.94 32.3606 27.0984 32.3318 27.2712L30.647 37.6824C30.6182 37.9416 30.4886 38.2152 30.2582 38.5032C30.0278 38.82 29.6822 38.9784 29.2214 38.9784ZM64.9681 17.292C63.0385 18.6744 62.0737 20.1144 62.0737 21.612C62.0737 22.476 62.5057 22.908 63.3697 22.908C63.8305 22.908 64.2337 22.6056 64.5793 22.0008C64.9249 21.396 65.0977 20.6328 65.0977 19.7112C65.0977 18.7896 65.0545 17.9832 64.9681 17.292ZM45.6577 22.908C45.6577 21.0648 46.5073 19.0488 48.2065 16.86C49.9057 14.6424 51.9505 12.7992 54.3409 11.3304C56.7601 9.8328 58.9057 9.084 60.7777 9.084C63.5713 9.084 65.5441 10.5384 66.6961 13.4472C67.9921 12.8424 69.1873 12.54 70.2817 12.54C72.2401 12.54 73.5361 13.836 74.1697 16.428C74.1985 16.5144 74.2561 16.7448 74.3425 17.1192C74.4289 17.4936 74.4865 17.7384 74.5153 17.8536C74.5441 17.94 74.6017 18.1416 74.6881 18.4584C74.8033 18.7752 74.8897 18.9912 74.9473 19.1064C74.9473 19.1064 75.0337 19.2792 75.2065 19.6248C75.3217 19.8552 75.4369 20.0136 75.5521 20.1C75.6673 20.1864 75.8113 20.2872 75.9841 20.4024C76.2433 20.604 76.6465 20.7192 77.1937 20.748C78.0577 20.748 79.0657 19.4232 80.2177 16.7736C81.0241 14.9304 81.8017 13.8216 82.5505 13.4472C82.8961 13.2744 83.2993 13.188 83.7601 13.188C84.8257 13.188 85.6897 13.6488 86.3521 14.5704C87.0433 15.492 87.5041 16.5144 87.7345 17.6376C87.9937 18.732 88.3249 19.74 88.7281 20.6616C89.1313 21.5832 89.6065 22.044 90.1537 22.044C90.7009 22.044 91.1905 21.972 91.6225 21.828C92.0545 21.684 92.3137 21.612 92.4001 21.612C93.2641 21.612 93.6961 22.044 93.6961 22.908C93.6961 23.5416 93.3073 23.988 92.5297 24.2472C91.7521 24.5064 90.8593 24.636 89.8513 24.636C88.8721 24.636 88.0081 24.1752 87.2593 23.2536C86.5393 22.332 86.0641 21.324 85.8337 20.2296C85.2289 17.2632 84.5233 15.78 83.7169 15.78C83.5441 15.78 83.2705 16.1832 82.8961 16.9896C82.5217 17.7672 82.1185 18.6312 81.6865 19.5816C81.2545 20.5032 80.6353 21.3672 79.8289 22.1736C79.0225 22.9512 78.1873 23.34 77.3233 23.34C76.4881 23.34 75.7681 23.2104 75.1633 22.9512C74.5873 22.6632 74.1265 22.332 73.7809 21.9576C73.4065 21.612 73.0753 21.1224 72.7873 20.4888C72.3553 19.5672 71.9809 18.444 71.6641 17.1192C71.3761 15.7944 70.9153 15.132 70.2817 15.132C69.5329 15.132 68.5681 15.4056 67.3873 15.9528C67.5889 16.9608 67.6897 18.2856 67.6897 19.9272C67.6897 21.5688 67.2721 22.908 66.4369 23.9448C65.6017 24.9816 64.5793 25.5 63.3697 25.5C62.1601 25.5 61.2097 25.1544 60.5185 24.4632C59.8273 23.7432 59.4817 22.7928 59.4817 21.612C59.4817 18.9336 61.1233 16.6008 64.4065 14.6136C63.6289 12.6552 62.4769 11.676 60.9505 11.676C59.4241 11.676 57.6673 12.3096 55.6801 13.5768C53.6929 14.8152 51.9505 16.3416 50.4529 18.156C48.9841 19.9416 48.2497 21.5256 48.2497 22.908C48.2497 23.772 47.8177 24.204 46.9537 24.204C46.4353 24.204 46.0897 24.1176 45.9169 23.9448C45.7441 23.7432 45.6577 23.3976 45.6577 22.908ZM127.743 15.564C129.701 15.564 130.853 16.9464 131.199 19.7112C131.228 19.8552 131.256 20.1144 131.285 20.4888C131.343 20.8344 131.386 21.108 131.415 21.3096C131.444 21.5112 131.487 21.6696 131.544 21.7848C131.544 21.9 131.573 22.0152 131.631 22.1304C131.717 22.3608 131.861 22.476 132.063 22.476C132.61 22.476 133.316 22.332 134.18 22.044C135.044 21.756 135.519 21.612 135.605 21.612C136.469 21.612 136.901 22.044 136.901 22.908C136.901 23.5416 136.469 24.0024 135.605 24.2904C134.05 24.8088 132.84 25.068 131.976 25.068C130.104 25.068 128.981 23.3976 128.607 20.0568C128.434 18.7896 128.146 18.156 127.743 18.156C126.879 18.156 125.784 19.164 124.46 21.18C123.97 21.9288 123.322 22.62 122.516 23.2536C121.709 23.8872 120.888 24.204 120.053 24.204C119.218 24.204 118.556 23.916 118.066 23.34C117.576 22.764 117.26 22.2168 117.116 21.6984C116.943 21.1224 116.669 19.8696 116.295 17.94C115.92 16.0104 115.661 14.988 115.517 14.8728C115.402 14.7576 115.301 14.7 115.215 14.7C114.812 14.7 114.452 14.9592 114.135 15.4776C113.847 15.9672 113.516 16.6584 113.141 17.5512C112.767 18.444 112.407 19.3656 112.061 20.316C111.744 21.2376 111.485 21.9288 111.284 22.3896C111.082 22.8216 110.808 23.3256 110.463 23.9016C109.829 24.9672 108.965 25.5 107.871 25.5C107.122 25.5 106.488 25.2408 105.97 24.7224C105.452 24.204 105.048 23.5416 104.76 22.7352C104.242 21.1224 103.968 19.4808 103.94 17.8104C103.94 16.1112 103.767 14.8152 103.421 13.9224C103.104 13.0008 102.716 12.54 102.255 12.54C100.757 12.54 99.634 13.4616 98.8852 15.3048C98.5396 16.1976 98.1652 17.4648 97.762 19.1064C97.186 21.324 95.818 22.8936 93.658 23.8152C93.1972 24.0744 92.722 24.204 92.2324 24.204C91.3684 24.204 90.9364 23.772 90.9364 22.908C90.9364 22.3608 91.3684 21.9144 92.2324 21.5688C92.578 21.4248 92.7652 21.3528 92.794 21.3528C92.8516 21.324 92.9668 21.2664 93.1396 21.18C93.3124 21.0936 93.4276 21.036 93.4852 21.0072C93.5428 20.9496 93.6436 20.8776 93.7876 20.7912C93.9604 20.676 94.0756 20.5752 94.1332 20.4888C94.2196 20.3736 94.3204 20.244 94.4356 20.1C94.5796 19.956 94.6804 19.812 94.738 19.668C94.9684 19.236 95.17 18.6744 95.3428 17.9832C95.5156 17.292 95.674 16.716 95.818 16.2552C95.962 15.7944 96.2356 15.0888 96.6388 14.1384C97.042 13.1592 97.4596 12.4248 97.8916 11.9352C98.3236 11.4456 98.914 10.9992 99.6628 10.596C100.44 10.164 101.376 9.948 102.471 9.948C103.594 9.948 104.544 10.596 105.322 11.892C106.128 13.1592 106.532 15.1032 106.532 17.724C106.532 18.6456 106.632 19.74 106.834 21.0072C107.064 22.2744 107.41 22.908 107.871 22.908C108.101 22.908 108.346 22.6056 108.605 22.0008C108.864 21.3672 109.08 20.8344 109.253 20.4024C109.426 19.9416 109.628 19.3944 109.858 18.7608C110.722 16.3128 111.572 14.5992 112.407 13.62C113.242 12.612 114.178 12.108 115.215 12.108C116.424 12.108 117.288 12.6552 117.807 13.7496C118.239 14.7 118.541 15.636 118.714 16.5576C119.29 19.9272 119.708 21.612 119.967 21.612C120.831 21.612 121.925 20.604 123.25 18.588C123.74 17.8392 124.388 17.148 125.194 16.5144C126 15.8808 126.85 15.564 127.743 15.564Z" fill="black"/>
<path d="M173.967 23.5128C171.317 24.8376 168.74 25.5 166.234 25.5C163.728 25.5 161.727 24.4632 160.229 22.3896C158.732 20.316 157.983 17.9544 157.983 15.3048C157.983 12.6552 158.357 10.236 159.106 8.0472C159.884 5.8296 161.108 3.972 162.778 2.4744C164.477 0.947998 166.479 0.184798 168.783 0.184798C169.704 0.184798 170.583 0.415198 171.418 0.875997C172.253 1.3368 172.671 1.8264 172.671 2.3448C172.671 3.2088 172.239 3.6408 171.375 3.6408C171.116 3.6408 170.727 3.4968 170.208 3.2088C169.719 2.9208 169.244 2.7768 168.783 2.7768C166.997 2.7768 165.456 3.4248 164.16 4.7208C161.77 7.1112 160.575 10.5816 160.575 15.132C160.575 17.1192 161.079 18.9192 162.087 20.532C163.095 22.116 164.463 22.908 166.191 22.908C168.322 22.908 170.568 22.3176 172.93 21.1368C173.448 20.8776 173.794 20.748 173.967 20.748C174.831 20.748 175.263 21.18 175.263 22.044C175.263 22.3896 175.176 22.6632 175.004 22.8648C174.831 23.0376 174.485 23.2536 173.967 23.5128ZM138.543 25.5C137.679 25.5 137.247 25.068 137.247 24.204C137.247 23.34 137.679 22.908 138.543 22.908C144.303 22.908 148.263 22.476 150.423 21.612C151.431 21.2088 151.935 20.7912 151.935 20.3592C151.935 19.9272 151.575 19.5384 150.855 19.1928C150.164 18.8472 148.983 18.4008 147.312 17.8536C145.671 17.3064 144.418 16.8456 143.554 16.4712C139.349 14.7144 137.247 12.0504 137.247 8.4792C137.247 6.1464 138.255 4.188 140.271 2.604C142.287 0.991198 144.706 0.184798 147.528 0.184798C149.084 0.184798 150.38 0.645599 151.416 1.5672C152.482 2.4888 153.015 3.5976 153.015 4.8936C153.015 6.1896 152.511 7.3416 151.503 8.3496C150.495 9.3576 149.804 9.8616 149.429 9.8616C148.565 9.8616 148.133 9.4296 148.133 8.5656C148.133 8.1912 148.508 7.6296 149.256 6.8808C150.034 6.1032 150.423 5.5128 150.423 5.1096C150.423 4.4184 150.149 3.8568 149.602 3.4248C149.084 2.9928 148.407 2.7768 147.572 2.7768C145.44 2.7768 143.612 3.324 142.085 4.4184C140.588 5.484 139.839 6.78 139.839 8.3064C139.839 9.8328 140.256 11.028 141.092 11.892C141.956 12.756 142.92 13.4184 143.986 13.8792C145.08 14.3112 146.175 14.7144 147.269 15.0888C148.364 15.4344 149.271 15.7512 149.991 16.0392C150.74 16.2984 151.488 16.6296 152.237 17.0328C153.764 17.868 154.527 18.9624 154.527 20.316C154.527 22.0728 153.26 23.3832 150.725 24.2472C148.22 25.0824 144.159 25.5 138.543 25.5ZM191.591 11.676L190.467 2.7768C190.467 1.9128 190.871 1.4808 191.677 1.4808C192.483 1.4808 192.944 1.9128 193.059 2.7768C193.722 7.4136 194.111 10.2792 194.226 11.3736C194.37 12.4392 194.6 13.7496 194.917 15.3048C195.637 18.8184 195.997 21.3528 195.997 22.908C195.997 23.772 195.565 24.204 194.701 24.204C193.837 24.204 193.405 23.772 193.405 22.908C193.405 21.5832 193.29 20.4024 193.059 19.3656C192.858 18.3 192.671 17.364 192.498 16.5576C192.354 15.7512 192.253 15.2328 192.195 15.0024C190.813 16.068 188.639 16.6008 185.672 16.6008C185.931 18.876 186.061 20.5464 186.061 21.612C186.061 24.204 184.909 25.5 182.605 25.5C181.194 25.5 180.186 24.636 179.581 22.908C179.005 21.3528 178.717 19.6824 178.717 17.8968C178.717 16.6296 179.178 15.6648 180.099 15.0024C181.05 14.34 181.957 14.0088 182.821 14.0088C182.101 7.7016 181.741 3.5256 181.741 1.4808C181.741 0.616798 182.173 0.184798 183.037 0.184798C183.901 0.184798 184.333 0.645599 184.333 1.5672C184.333 2.4888 184.391 3.6696 184.506 5.1096C184.621 6.8088 184.851 9.1416 185.197 12.108L185.456 14.0088C187.299 14.0088 188.783 13.7784 189.906 13.3176C191.029 12.8568 191.591 12.3096 191.591 11.676ZM181.309 18.156C181.309 18.732 181.424 19.668 181.655 20.964C181.914 22.26 182.231 22.908 182.605 22.908C183.008 22.908 183.253 22.8216 183.339 22.6488C183.426 22.476 183.469 22.1304 183.469 21.612L183.037 16.6008C182.576 16.6008 182.173 16.716 181.827 16.9464C181.482 17.1768 181.309 17.58 181.309 18.156Z" fill="#E70CFF"/>
</svg>
