<svg width="47" height="40" viewBox="0 0 47 40" fill="none" xmlns="http://www.w3.org/2000/svg">
<g clip-path="url(#clip0_37_238)">
<path d="M0.5 33L5.10606 25H12.7448C17.7569 25 21.9947 28.7103 22.6571 33.6784L23.5 40H13.5L12.0585 36.6365C11.113 34.4304 8.94379 33 6.54362 33H0.5Z" fill="#0047C1"/>
<path d="M46.5 33L41.8939 25H34.2552C29.2431 25 25.0053 28.7103 24.3429 33.6784L23.5 40H33.5L34.9415 36.6365C35.887 34.4304 38.0562 33 40.4564 33H46.5Z" fill="#0047C1"/>
<path d="M5.10605 25L19.4999 0H23.5L23.1032 9.52405C22.7608 17.7406 16.2455 24.3596 8.03536 24.8316L5.10605 25Z" fill="#0047C1"/>
<path d="M41.8939 25L27.5001 0H23.5L23.8968 9.52405C24.2392 17.7406 30.7545 24.3596 38.9646 24.8316L41.8939 25Z" fill="#0047C1"/>
</g>
<defs>
<clipPath id="clip0_37_238">
<rect width="46" height="40" fill="white" transform="translate(0.5)"/>
</clipPath>
</defs>
</svg>
