<svg width="288" height="40" viewBox="0 0 288 40" fill="none" xmlns="http://www.w3.org/2000/svg">
<g clip-path="url(#clip0_37_218)">
<path d="M67.833 27.5631H78.7225L77.3641 33.9997H66.4745C61.0618 33.9997 57.5862 29.6771 58.7116 24.3449L61.5417 10.9353H68.0754L65.2453 24.3449C64.8702 26.1223 66.0287 27.5631 67.833 27.5631Z" fill="#0A0048"/>
<path d="M131.507 10.9353L128.677 24.3449C127.552 29.6771 122.251 33.9997 116.839 33.9997H105.949L107.308 27.5631H118.197C120.001 27.5631 121.768 26.1223 122.143 24.3449L123.615 17.3719H114.437C114.093 17.3719 113.756 17.6465 113.685 17.9853C113.623 18.2777 113.78 18.5295 114.058 18.5869L122.893 20.4029L116.186 25.8728L111.445 24.8985C108.239 24.2394 106.442 21.3459 107.151 17.9853C107.973 14.0917 111.843 10.9353 115.795 10.9353H131.507Z" fill="#0A0048"/>
<path fill-rule="evenodd" clip-rule="evenodd" d="M148.385 10.9374C153.798 10.9374 157.274 15.2601 156.148 20.5923L155.356 24.347C154.25 29.5895 149.108 33.8559 143.791 33.9979L145.148 27.5653L137.274 33.9875C132.165 33.7162 128.949 29.504 130.038 24.347L130.83 20.5923C131.938 15.3433 137.091 11.0727 142.415 10.9406L142.668 10.9374H148.385ZM141.226 17.3751C139.451 17.4191 137.733 18.8427 137.364 20.5923L136.572 24.347C136.196 26.1244 137.355 27.5653 139.159 27.5653H144.876C146.68 27.5653 148.447 26.1244 148.822 24.347L149.615 20.5923C149.99 18.8149 148.831 17.374 147.027 17.374H141.31L141.226 17.3751Z" fill="#0A0048"/>
<path d="M161.214 33.9997H154.68L159.548 10.9353H166.081L161.214 33.9997Z" fill="#0A0048"/>
<path d="M182.502 10.9353C187.115 10.9353 190.078 14.6196 189.118 19.1644C188.291 23.0869 184.767 26.4641 180.7 27.2334L176.55 28.0183L172.152 22.5484L180.751 20.922C181.637 20.7544 182.404 20.0187 182.585 19.1644C182.794 18.1744 182.148 17.3719 181.143 17.3719H173.162L169.653 33.9997H163.119L167.987 10.9353H182.502Z" fill="#0A0048"/>
<path d="M214.016 10.9356L212.658 17.3721H197.341C197.079 17.3722 196.824 17.5808 196.769 17.8381C196.722 18.0602 196.841 18.2515 197.053 18.2951L206.945 20.3288L207.091 20.3608C210.139 21.0628 211.833 23.8585 211.15 27.0975C210.345 30.9096 206.556 33.9999 202.686 34H192.269L187.094 27.5634H204.044C204.306 27.5633 204.561 27.3548 204.616 27.0975C204.66 26.8892 204.558 26.7079 204.371 26.6501L204.332 26.6405L194.44 24.6068C191.301 23.9615 189.541 21.1284 190.236 17.8381C191.04 14.026 194.829 10.9356 198.699 10.9356H214.016Z" fill="#0A0048"/>
<path d="M219.081 24.3449C218.706 26.1223 219.864 27.5631 221.669 27.5631H230.652L234.162 10.9353H240.695L235.828 33.9997H229.294L230.652 27.5631L222.76 33.9997H220.31C214.897 33.9997 211.422 29.6771 212.547 24.3449L215.377 10.9353H221.911L219.081 24.3449Z" fill="#0A0048"/>
<path d="M248.863 10.9353L247.504 17.3719L255.396 10.9353H256.485C261.898 10.9353 265.374 15.2579 264.248 20.5902L261.418 33.9997H254.884L257.715 20.5902C258.09 18.8128 256.931 17.3719 255.127 17.3719H247.504L243.995 33.9997H237.461L242.329 10.9353H248.863Z" fill="#0A0048"/>
<path d="M273.364 10.9353C278.777 10.9353 282.252 15.2579 281.127 20.5902L278.297 33.9997H271.763L274.593 20.5902C274.968 18.8128 273.81 17.3719 272.006 17.3719H264.383L272.275 10.9353H273.364Z" fill="#0A0048"/>
<path fill-rule="evenodd" clip-rule="evenodd" d="M98.0216 10.9353C103.434 10.9353 106.91 15.2579 105.785 20.5901L104.992 24.3448C103.867 29.677 98.5667 33.9998 93.154 33.9998H87.437C82.0242 33.9998 78.5485 29.6771 79.6739 24.3448L80.4664 20.5901C81.5369 15.5183 86.3842 11.3602 91.5128 10.9661L96.6633 17.3719L98.0216 10.9353ZM90.8618 17.373C89.0872 17.417 87.3695 18.8405 87.0002 20.5901L86.2076 24.3448C85.8325 26.1222 86.9911 27.5632 88.7952 27.5632H94.5123C96.3165 27.5632 98.0833 26.1222 98.4584 24.3448L99.2509 20.5901C99.626 18.8127 98.4675 17.3719 96.6633 17.3719H90.9463L90.8618 17.373Z" fill="#0A0048"/>
<path d="M287.5 9.29019C287.5 11.1073 286.037 12.5804 284.233 12.5804C282.429 12.5804 280.966 11.1073 280.966 9.29019C280.966 7.47307 282.429 6 284.233 6C286.037 6 287.5 7.47307 287.5 9.29019Z" fill="#0A0048"/>
<path d="M43.5 31L31.5 40H5.5L7.5 35L12.5 31H29.5L32.5 35L40.5 11L45.5 7H50.5L43.5 31ZM43.5 5L38.5 9H21.5L18.5 5L10.5 29L5.5 33H0.5L7.5 9L19.5 0H45.5L43.5 5ZM24.5 13H35.5L29.5 31L26.5 27H15.5L21.5 9L24.5 13Z" fill="#297AFF"/>
</g>
<defs>
<clipPath id="clip0_37_218">
<rect width="287" height="40" fill="white" transform="translate(0.5)"/>
</clipPath>
</defs>
</svg>
