<svg width="261" height="40" viewBox="0 0 261 40" fill="none" xmlns="http://www.w3.org/2000/svg">
<g clip-path="url(#clip0_37_192)">
<path d="M34.224 36.5809C38.2426 32.5622 40.5003 27.1118 40.5003 21.4286C40.5003 15.7454 38.2426 10.2949 34.224 6.27629C30.2054 2.25765 24.7549 1.02188e-06 19.0717 0C13.3885 -1.02188e-06 7.93807 2.25764 3.91943 6.27628L10.9905 13.3473C12.1063 14.4631 13.9081 14.4074 15.3276 13.7181C16.4836 13.1568 17.7622 12.8571 19.0717 12.8571C21.345 12.8571 23.5252 13.7602 25.1326 15.3677C26.7401 16.9751 27.6431 19.1553 27.6431 21.4286C27.6431 22.7381 27.3435 24.0167 26.7822 25.1727C26.0929 26.5922 26.0372 28.394 27.1529 29.5098L34.224 36.5809Z" fill="#297AFF"/>
<path d="M30.5 40H20.0098C18.4943 40 17.0408 39.398 15.9692 38.3263L2.17368 24.5308C1.10204 23.4592 0.5 22.0057 0.5 20.4902V10L30.5 40Z" fill="#34C2FF"/>
<path d="M11.2143 39.9999H4.78571C2.41878 39.9999 0.5 38.0812 0.5 35.7142V29.2856L11.2143 39.9999Z" fill="#34C2FF"/>
<path d="M244.637 6.9292C253.077 6.9292 259.948 13.8007 259.948 22.2407V33.0708H252.479V22.2407C252.479 19.1411 250.612 16.4522 247.998 15.1825V33.0708H240.529V22.2407C240.529 19.1411 238.661 16.4522 236.047 15.1825V33.0708H228.578V6.9292H232.686C235.524 6.9292 238.213 7.75079 240.529 9.13256V6.9292H244.637Z" fill="#0F2D5E"/>
<path d="M225.612 22.2407C225.612 28.2159 220.719 33.0708 214.781 33.0708C208.806 33.0708 203.951 28.2159 203.951 22.2407V6.9292H211.42V22.2407C211.42 24.108 212.914 25.6018 214.781 25.6018C216.611 25.6018 218.143 24.108 218.143 22.2407V6.9292H225.612V22.2407Z" fill="#0F2D5E"/>
<path d="M201.674 24.6682C201.674 29.2616 197.939 32.9961 193.346 32.9961H182.254V25.5271H193.346C193.794 25.5271 194.205 25.1536 194.205 24.6682C194.205 24.22 193.794 23.8466 193.346 23.8466H190.321C185.653 23.8466 181.881 20.0747 181.881 15.4066C181.881 10.7384 185.653 6.9292 190.321 6.9292H201.3V14.3982H190.321C189.761 14.3982 189.35 14.8464 189.35 15.4066C189.35 15.9294 189.761 16.3775 190.321 16.3775H193.346C197.939 16.3775 201.674 20.112 201.674 24.6682Z" fill="#0F2D5E"/>
<path d="M170.941 6.9292C176.17 6.9292 180.464 11.2239 180.464 16.4522C180.464 21.7179 176.17 25.9752 170.941 25.9752H168.14V33.0708H160.671V6.9292H170.941ZM170.941 18.5062C172.062 18.5062 172.995 17.6099 172.995 16.4522C172.995 15.3319 172.062 14.3982 170.941 14.3982H168.14V18.5062H170.941Z" fill="#0F2D5E"/>
<path d="M157.309 33.0708H149.84V6.9292H157.309V33.0708Z" fill="#0F2D5E"/>
<path d="M147.546 20C147.546 27.2076 141.645 33.0708 134.475 33.0708C127.267 33.0708 121.404 27.2076 121.404 20C121.404 12.8297 127.267 6.9292 134.475 6.9292C141.645 6.9292 147.546 12.8297 147.546 20ZM140.077 20C140.077 16.9377 137.537 14.3982 134.475 14.3982C131.375 14.3982 128.873 16.9377 128.873 20C128.873 23.0997 131.375 25.6018 134.475 25.6018C137.537 25.6018 140.077 23.0997 140.077 20Z" fill="#0F2D5E"/>
<path d="M119.231 18.3195V33.0708H109.894C102.687 33.0708 96.8235 27.2076 96.8235 20C96.8235 12.8297 102.687 6.9292 109.894 6.9292H119.231V14.3982H109.894C106.795 14.3982 104.293 16.9377 104.293 20C104.293 23.0997 106.795 25.6018 109.894 25.6018H111.762V18.3195H119.231Z" fill="#0F2D5E"/>
<path d="M95.6128 20C95.6128 27.2076 89.7122 33.0708 82.542 33.0708C75.3343 33.0708 69.4712 27.2076 69.4712 20C69.4712 12.8297 75.3343 6.9292 82.542 6.9292C89.7122 6.9292 95.6128 12.8297 95.6128 20ZM88.1437 20C88.1437 16.9377 85.6043 14.3982 82.542 14.3982C79.4423 14.3982 76.9402 16.9377 76.9402 20C76.9402 23.0997 79.4423 25.6018 82.542 25.6018C85.6043 25.6018 88.1437 23.0997 88.1437 20Z" fill="#0F2D5E"/>
<path d="M68.7015 25.6018V33.0708H59.3652C55.6307 33.0708 52.6431 30.0832 52.6431 26.3487V6.9292H60.1121V25.6018H68.7015Z" fill="#0F2D5E"/>
</g>
<defs>
<clipPath id="clip0_37_192">
<rect width="260" height="40" fill="white" transform="translate(0.5)"/>
</clipPath>
</defs>
</svg>
