<svg width="140" height="62" viewBox="0 0 140 62" fill="none" xmlns="http://www.w3.org/2000/svg">
<path d="M82.0395 11.1227C82.2847 11.3686 82.6019 11.5333 82.9622 11.4489C86.0885 10.7154 89.1511 9.71673 91.9866 8.18983C92.3277 8.0062 92.5897 7.58754 92.7184 7.23871C92.8653 6.83993 92.9248 6.29244 92.8067 5.87685C92.7085 5.53223 92.5387 5.1286 92.1963 4.95968C91.8686 4.79804 91.5441 4.80919 91.218 4.98474C90.3093 5.4742 89.3746 5.91193 88.4191 6.30198C86.6065 7.01209 84.7325 7.54163 82.8383 7.986C82.017 8.17868 81.5824 9.21935 81.6375 9.99217C81.6653 10.3824 81.7516 10.8342 82.0395 11.1227Z" fill="black"/>
<path d="M132.07 12.0507C131.941 11.7787 131.735 11.4497 131.398 11.4213C131.042 11.3914 130.812 11.5795 130.564 11.8121C129.318 12.982 128.306 14.3721 127.069 15.5489C126.661 15.9121 126.228 16.2435 125.768 16.539C125.911 16.2378 126.057 15.9384 126.211 15.6428C126.685 14.731 127.212 13.8479 127.785 12.995C128.009 12.6734 128.226 12.3566 128.373 11.9833C128.578 11.4643 128.589 10.7613 128.368 10.2453C128.226 9.91329 127.833 9.44339 127.403 9.63332C127.166 9.73807 127.024 9.83263 126.834 10.0295C126.773 10.0926 126.715 10.1587 126.656 10.2238C126.519 10.3766 126.383 10.5303 126.247 10.6847C125.974 10.996 125.704 11.3102 125.436 11.6266C124.926 12.2297 124.425 12.8405 123.925 13.4517C122.945 14.6479 121.965 15.8445 120.918 16.9827C120.627 17.2988 120.332 17.611 120.03 17.9179C120.21 17.5601 120.384 17.1991 120.554 16.8364C121.226 15.3985 121.835 13.9316 122.537 12.5075C122.742 12.0915 122.955 11.6789 123.178 11.2721C123.285 11.0763 123.395 10.882 123.507 10.6892C123.567 10.5861 123.631 10.4847 123.689 10.3806C123.86 10.0764 123.942 9.75924 124.025 9.4206C124.111 9.06385 124.068 8.47756 123.908 8.13956C123.762 7.83066 123.579 7.60807 123.236 7.51012C122.709 7.35963 122.244 8.05227 121.929 8.39399C121.721 8.61932 121.513 8.8445 121.305 9.06934C120.846 9.56543 120.385 10.0606 119.924 10.5552C118.937 11.6148 117.947 12.6722 116.958 13.7304C116.182 14.5607 115.405 15.3901 114.63 16.2221C114.894 15.4448 115.153 14.665 115.408 13.8839C115.637 13.1822 115.871 12.4817 116.09 11.7771C116.336 10.9877 116.408 9.96162 115.837 9.2811C115.46 8.8314 114.834 8.70726 114.343 9.06433C113.878 9.40233 113.61 9.98635 113.309 10.4661C113.094 10.8093 112.88 11.1526 112.665 11.4961C112.263 12.139 111.861 12.782 111.457 13.4239C110.731 14.5787 110 15.7312 109.233 16.8601C108.516 17.9055 107.761 18.953 106.843 19.8304C106.544 20.0921 106.223 20.3282 105.872 20.5148C105.62 20.62 105.358 20.6935 105.087 20.7296C105.09 20.7162 105.092 20.7028 105.095 20.6895C105.104 20.6536 105.114 20.6176 105.124 20.5819C105.238 20.1836 105.377 19.7925 105.528 19.4067C105.603 19.2127 105.684 19.0207 105.765 18.829L105.767 18.8248C105.816 18.7155 105.865 18.6067 105.915 18.4981C106.621 16.971 107.439 15.4947 108.301 14.0514C108.488 13.7391 108.676 13.4273 108.871 13.12C109.072 12.8038 109.146 12.3932 109.173 12.0294C109.199 11.6899 109.188 11.2973 109.039 10.9829C108.944 10.7829 108.822 10.5924 108.64 10.4606C108.388 10.2778 108.03 10.3444 107.792 10.5062C105.677 11.9421 103.583 13.4121 101.542 14.9519V14.9468C101.547 14.8989 101.551 14.8509 101.556 14.803C101.574 14.6243 101.596 14.4458 101.622 14.2678C101.648 14.0908 101.678 13.9143 101.711 13.7386C101.727 13.6557 101.77 13.481 101.795 13.3727C101.865 13.1229 101.938 12.8746 102.027 12.6305C102.057 12.5492 102.09 12.4697 102.122 12.3895C102.163 12.2979 102.236 12.1343 102.273 12.0616C102.33 11.9502 102.392 11.8419 102.454 11.7332C102.767 11.3353 103.075 10.9333 103.374 10.5238C103.637 10.1624 103.81 9.78818 103.881 9.34155C103.942 8.95377 103.937 8.42681 103.764 8.06052C103.635 7.78847 103.429 7.45952 103.092 7.43107C102.746 7.40198 102.491 7.57979 102.259 7.82193C101.812 8.28795 101.427 8.79665 101.093 9.33573C100.018 10.664 98.8575 11.9169 97.618 13.1013C97.4716 13.2412 97.3241 13.3803 97.1767 13.5193C97.1319 12.8879 96.9792 12.235 96.685 11.686C96.3449 11.0513 95.8656 10.5305 95.1332 10.379C94.4975 10.2476 93.8787 10.4797 93.3142 10.7403C92.7454 11.0029 92.2325 11.3742 91.7506 11.7712C90.5679 12.7455 89.512 13.8569 88.5206 15.0227C88.6512 14.7741 88.7827 14.5255 88.907 14.2738C89.1767 13.7279 89.3366 13.0605 89.1835 12.4516C89.077 12.0279 88.8845 11.614 88.4565 11.4523C87.779 11.1964 87.189 11.8841 86.7754 12.3305C86.2743 12.8716 85.7625 13.3993 85.2819 13.9596C84.6618 14.6823 84.0654 15.4251 83.4757 16.1727C82.7921 17.0392 82.1185 17.9134 81.4445 18.7873C81.8946 17.8347 82.3015 16.8487 82.4863 15.8177C82.6232 15.0539 82.6098 14.0986 82.1066 13.4578C81.7351 12.9847 81.1963 12.8716 80.6285 12.9881C80.3233 13.0508 80.0352 13.1921 79.754 13.3196C79.473 13.4472 79.2024 13.5957 78.9377 13.754C78.4856 14.0242 78.0486 14.3199 77.6198 14.6267C77.5652 14.4862 77.4905 14.3563 77.3877 14.2484C77.1691 14.0196 76.8442 13.8183 76.5111 13.9297C74.0282 14.7596 71.7002 16.032 69.6837 17.7028C68.6142 18.5889 67.612 19.5397 66.7164 20.6032C65.7208 21.7856 64.7858 23.0529 64.1789 24.4822C63.9283 25.0722 63.7586 25.7238 63.6934 26.3757C62.6665 27.1626 61.6354 27.9441 60.6012 28.7216C62.0354 26.5242 63.4479 24.3126 64.8175 22.0745C65.2312 21.3985 65.6467 20.722 66.0271 20.0263C66.2295 19.6561 66.4387 19.2761 66.5769 18.8775C66.8101 18.205 66.8562 17.2904 66.3535 16.7139C66.105 16.4289 65.8005 16.3285 65.4416 16.3797C65.1604 16.4198 64.9426 16.6241 64.7393 16.7982C64.4026 17.0864 64.1224 17.4497 63.8407 17.7899C63.6275 18.0476 63.4182 18.3083 63.2098 18.5699C63.0695 18.1916 62.886 17.8383 62.6474 17.4977C62.4003 17.145 62.0464 16.8149 61.6562 16.6288C60.1932 15.9312 58.618 16.7205 57.4163 17.5898C56.2565 18.4287 55.2155 19.4199 54.2147 20.4432C54.1663 20.4799 54.1187 20.519 54.0735 20.5626C53.8868 20.7433 53.6921 20.9142 53.4911 21.0781C53.1917 21.2924 52.8754 21.4787 52.5378 21.6258C52.2634 21.714 51.9824 21.7711 51.695 21.795C51.5348 21.7906 51.3753 21.7792 51.2178 21.7547C51.2217 21.6322 51.2238 21.5095 51.2227 21.3865C51.212 20.1756 50.9034 18.8272 50.1196 17.8741C49.6551 17.3094 48.975 17.0263 48.2518 17.0929C47.8666 17.1283 47.5244 17.3087 47.2386 17.5639C47.0881 17.5733 46.9402 17.6153 46.8078 17.7039C44.6635 19.1411 42.7089 20.8148 40.955 22.6863C40.9149 22.7201 40.8766 22.7561 40.842 22.7964C40.8032 22.8416 40.7641 22.8866 40.7252 22.9318C40.2831 23.4127 39.8552 23.9075 39.4398 24.4136C37.5068 26.6235 35.5184 28.7868 33.3493 30.7684C32.5747 31.4759 31.7767 32.1577 30.951 32.805C29.9792 33.5471 28.9679 34.2379 27.9009 34.8365C27.5535 35.0314 27.2907 35.422 27.1549 35.7854C27.006 36.1837 26.9477 36.7329 27.0699 37.1477C27.1727 37.4967 27.351 37.8987 27.6988 38.0678C28.0281 38.2278 28.3744 38.2299 28.701 38.0466C30.9083 36.8081 32.9095 35.1963 34.7726 33.4921C35.2903 33.0185 35.7973 32.5332 36.2967 32.0407C36.3192 32.1344 36.3439 32.2277 36.3732 32.3195C36.7141 33.3903 37.4418 34.3448 38.4888 34.8084C39.5262 35.2678 40.6746 35.2974 41.766 35.0116C44.7765 34.2231 46.971 31.9385 48.5528 29.3496C48.3624 30.2406 48.2841 31.1479 48.51 32.0525C48.7589 33.05 49.3751 34.0207 50.4557 34.2203C51.2447 34.3661 52.0275 34.0173 52.7126 33.6683C53.7166 33.1567 54.624 32.4422 55.4704 31.6864C55.0676 32.289 54.6631 32.8905 54.2589 33.4921C52.7984 34.6023 51.3454 35.7231 49.9077 36.8632C48.1295 37.3396 46.3562 37.8345 44.5894 38.3524C42.6672 38.9159 40.7522 39.5048 38.8464 40.122C37.0193 40.7136 35.2005 41.3309 33.392 41.977C31.5685 42.6286 29.7558 43.3106 27.9541 44.0202C26.3273 44.661 24.711 45.3285 23.108 46.0265C21.5801 46.6917 20.0644 47.3847 18.5638 48.1093C17.153 48.7907 15.7556 49.5001 14.3758 50.2424C13.0777 50.9407 11.7951 51.6678 10.5328 52.4291C9.93294 52.7909 9.33777 53.1606 8.74792 53.5385C8.75714 53.5259 8.76635 53.5133 8.77557 53.5005C10.4777 51.1521 12.1607 48.7898 13.8393 46.4247C15.1035 44.6432 16.3664 42.861 17.6324 41.0808C17.6916 41.0388 17.7509 40.997 17.8099 40.9548C19.4511 39.7812 21.0578 38.5605 22.6462 37.3166C24.3234 36.0033 25.9744 34.6566 27.603 33.2836C29.334 31.8243 31.0399 30.335 32.72 28.8173C34.4326 27.2702 36.1188 25.6937 37.7735 24.085C39.3958 22.5079 40.9883 20.9 42.5403 19.2536C44.0011 17.7041 45.4268 16.1208 46.7967 14.4903C48.1046 12.9336 49.3711 11.3371 50.5472 9.6781C51.036 8.98836 51.5086 8.28698 51.9569 7.57009C52.5176 6.67328 53.1505 5.72039 53.4324 4.69717C53.6524 3.89881 53.8184 3.01348 53.5467 2.20299C53.4214 1.82927 53.2686 1.46654 52.979 1.18544C52.6857 0.900944 52.43 0.775992 52.0471 0.65492C51.5984 0.512996 51.0762 0.560035 50.6207 0.649586C50.0553 0.760798 49.5026 0.98209 48.9834 1.22682C47.6801 1.84107 46.5044 2.71929 45.3918 3.6245C44.2893 4.52179 43.2418 5.49392 42.2249 6.48674C40.1602 8.50229 38.1594 10.583 36.2172 12.7167C34.3056 14.8169 32.4507 16.9684 30.6435 19.1591C28.779 21.4192 26.9627 23.7194 25.182 26.0461C23.4718 28.2808 21.7961 30.5418 20.1407 32.8174C18.8119 34.644 17.4979 36.4811 16.1878 38.3209C14.8914 39.2295 13.5733 40.1098 12.2112 40.9163C11.2838 41.4654 10.3317 41.9941 9.32968 42.3965C9.00429 42.515 8.66662 42.6176 8.32312 42.6545C8.29257 42.6522 8.26234 42.6486 8.23212 42.6441C8.11767 42.6003 7.99854 42.5854 7.87423 42.6032C7.69448 42.5883 7.52637 42.6323 7.37006 42.7353C7.0332 42.9229 6.7432 43.3251 6.62246 43.684C6.47843 44.1125 6.40731 44.605 6.53775 45.0463C6.63409 45.3724 6.81982 45.839 7.16865 45.9667C7.37394 46.0419 7.56452 46.1253 7.78145 46.1403C8.01907 46.157 8.26428 46.1465 8.50109 46.1161C8.84523 46.072 9.18145 45.9675 9.50668 45.8495C10.1735 45.6077 10.8171 45.3172 11.4461 44.9962C11.0468 45.5584 10.6482 46.1211 10.2481 46.6826C8.57092 49.0364 6.88416 51.3833 5.17428 53.7134C4.30819 54.8936 3.43611 56.0694 2.5566 57.2395C2.02479 57.947 1.35283 58.6623 1.24518 59.5809C1.17858 60.1491 1.24453 60.7955 1.64961 61.2383C1.91277 61.5258 2.3025 61.6586 2.6864 61.5836C3.09456 61.5039 3.43482 61.2129 3.74291 60.9585C4.19875 60.5822 4.65782 60.2104 5.12368 59.8465C6.31097 58.9355 7.53365 58.071 8.78332 57.2478C10.1998 56.3147 11.6496 55.4325 13.1228 54.5919C14.706 53.6887 16.3163 52.8334 17.9465 52.0182C19.701 51.1408 21.4784 50.3095 23.2728 49.5173C25.1777 48.6762 27.1019 47.8791 29.0408 47.1196C29.218 47.0502 29.3953 46.9815 29.5726 46.9128C31.8919 46.0201 34.2306 45.1785 36.5849 44.3829C38.8924 43.6032 41.2153 42.8688 43.5488 42.1708C42.4124 43.1801 41.2967 44.2126 40.2098 45.275C38.7083 46.7428 37.2095 48.243 35.9453 49.9233C34.517 51.8218 33.3755 53.9436 32.8799 56.2835C32.634 57.4445 32.6287 58.7688 33.1594 59.8565C33.4073 60.3649 33.7778 60.8646 34.2972 61.117C34.6772 61.3018 35.0799 61.4198 35.5023 61.413C35.9508 61.4059 36.3658 61.3527 36.7857 61.1912C37.2335 61.0191 37.6615 60.8185 38.0651 60.5592C38.8262 60.0701 39.5233 59.46 40.1563 58.8152C41.6115 57.3326 42.7254 55.5628 43.8478 53.8272C46.1954 50.1971 48.6047 46.6076 51.0229 43.0245C51.8277 41.832 52.6335 40.6402 53.439 39.4481C55.9364 38.8162 58.4429 38.2194 60.9574 37.6591C63.974 36.987 67.0017 36.3642 70.0378 35.7867C72.2231 35.3709 74.4132 34.9802 76.6068 34.6104C76.1664 35.7844 75.8221 37.0022 75.7686 38.2546C75.7547 38.5802 75.7841 38.915 75.8496 39.2329C75.951 39.7253 76.283 40.2694 76.845 40.243C77.4009 40.217 77.8357 39.6414 77.983 39.1443C78.486 37.4472 79.0499 35.7695 79.6612 34.1091C94.2363 31.7913 108.96 29.4663 123.706 28.8871C124.544 28.8542 125.055 28.3196 125.017 27.8308C124.962 27.1155 124.583 26.6422 123.65 26.6422C109.472 27.1998 95.3707 28.7527 81.2607 30.3716C81.4416 30.0407 81.6242 29.7107 81.8095 29.3823C82.6128 27.9577 83.4581 26.5566 84.3376 25.1776C84.4543 25.5452 84.6051 25.9005 84.8051 26.2325C85.0467 26.6338 85.3613 27.0232 85.8008 27.2175C86.2684 27.4243 86.7307 27.472 87.2347 27.3519C88.2468 27.1109 89.1032 26.3754 89.8495 25.6935C90.6928 24.9231 91.4395 24.0475 92.1478 23.1536C92.8763 22.234 93.5703 21.2855 94.237 20.318C94.9661 19.4516 95.7449 18.6281 96.5671 17.8404C97.4951 16.9515 98.4434 16.0855 99.3592 15.186C99.324 15.686 99.3114 16.1846 99.3174 16.6781C97.9473 17.7752 96.6097 18.9197 95.3707 20.1616C94.5448 20.9892 93.7013 21.9038 93.1679 22.955C92.837 23.6069 92.6309 24.2869 92.6106 25.0211C92.5954 25.5713 92.7244 26.1827 93.0719 26.6245C93.5549 27.2387 94.3133 27.2723 95.0247 27.1991C95.683 27.1314 96.3268 26.908 96.9291 26.6422C97.7339 26.2869 98.51 25.8639 99.2073 25.325C99.9958 24.7156 100.679 24.0032 101.194 23.1473C101.832 22.0848 102.081 20.803 101.894 19.5805C101.836 19.2009 101.771 18.8233 101.712 18.4447C102.573 17.7915 103.445 17.1529 104.322 16.5238C104.299 16.5735 104.275 16.6227 104.252 16.6726C103.824 17.62 103.403 18.5865 103.145 19.5966C102.86 20.712 102.627 21.971 103.089 23.0762C103.249 23.4598 103.523 23.8532 103.909 24.0365C104.354 24.2478 104.76 24.248 105.243 24.1641C105.97 24.038 106.665 23.645 107.234 23.1861C108.023 22.5494 108.699 21.7858 109.317 20.9853C110.173 19.875 110.948 18.7006 111.711 17.5245C111.801 17.3853 111.89 17.2452 111.979 17.1057C111.763 17.7085 111.542 18.3098 111.312 18.9077C111.157 19.31 110.999 19.7109 110.837 20.1103C110.761 20.2957 110.685 20.4808 110.607 20.6654C110.567 20.7622 110.526 20.8589 110.485 20.9554C110.429 21.087 110.244 21.5103 110.493 20.9383C110.304 21.3733 110.167 21.78 110.173 22.2634C110.178 22.6066 110.258 23.1077 110.498 23.3819C110.695 23.6077 110.973 23.7902 111.29 23.6874C111.603 23.5863 111.882 23.3253 112.03 23.0324C112.315 22.6593 112.646 22.3132 112.957 21.9665C113.653 21.1895 114.361 20.4226 115.07 19.6571C116.147 18.4939 117.229 17.3352 118.311 16.1772C118.16 16.472 118.004 16.7654 117.843 17.0549C117.619 17.4534 117.359 17.8366 117.169 18.2524C116.796 19.0687 116.582 19.9632 116.758 20.8605C116.868 21.4206 117.161 22.0439 117.686 22.327C118.231 22.6213 118.77 22.5216 119.299 22.2539C119.737 22.0323 120.079 21.6618 120.43 21.3261C121.415 20.3827 122.335 19.3755 123.223 18.3403C123.381 18.9449 123.772 19.5095 124.336 19.7958C124.595 19.9275 124.894 20.0494 125.19 20.0633C125.632 20.0841 125.944 19.9889 126.317 19.7537C127.353 19.1022 128.251 18.2443 129.071 17.3418C129.934 16.3914 130.742 15.3943 131.68 14.5139C131.961 14.2502 132.13 13.6913 132.187 13.3318C132.248 12.944 132.243 12.417 132.07 12.0507ZM28.9484 25.7559C29.1014 25.5607 29.2553 25.3661 29.409 25.1713C31.5041 22.5276 33.6571 19.9291 35.8878 17.3984C38.1786 14.7998 40.5506 12.2722 43.0145 9.83683C44.3429 8.52379 45.7024 7.22481 47.1743 6.07148C48.0847 5.38158 49.061 4.72902 50.12 4.29419C50.3597 4.21095 50.6052 4.14241 50.8551 4.10022C50.461 4.8336 50.0079 5.54144 49.5518 6.23474C48.9894 7.08919 48.3967 7.92344 47.7842 8.7425C47.4666 9.16714 47.1425 9.58709 46.8148 10.0041C45.4538 11.7156 44.0227 13.3709 42.5488 14.9859C40.9141 16.7771 39.2269 18.5204 37.5039 20.2267C35.7258 21.9877 33.9088 23.7094 32.0602 25.3963C30.2384 27.0586 28.386 28.6875 26.5036 30.2809C25.6152 31.0328 24.7204 31.7771 23.8181 32.5124C25.4979 30.2375 27.2032 27.9811 28.9484 25.7559ZM67.2398 24.2708C68.1809 23.0185 69.2571 21.8737 70.4476 20.856C71.8552 19.701 73.4067 18.7305 75.066 17.9816C75.0724 18.0555 75.0828 18.127 75.0975 18.1961C74.9095 18.7234 74.6995 19.2429 74.4701 19.7542C73.9212 20.9045 73.2706 22.0032 72.5238 23.0363C71.6381 24.2054 70.6312 25.2784 69.5117 26.2267C68.9737 26.6684 68.4096 27.0953 67.7816 27.3955C67.5658 27.4746 67.3452 27.5306 67.1166 27.5573C66.9813 27.5499 66.8489 27.5279 66.7173 27.4935C66.6202 27.4459 66.5279 27.3908 66.4401 27.3275C66.3696 27.2539 66.3048 27.176 66.2442 27.0942C66.2039 27.0177 66.1677 26.9395 66.1341 26.86C66.1133 26.7814 66.0948 26.7022 66.0796 26.6224C66.0779 26.5853 66.0769 26.548 66.0764 26.511C66.0887 26.4197 66.1037 26.3288 66.1218 26.2385C66.1695 26.0893 66.2235 25.9425 66.2835 25.7978C66.5549 25.2611 66.8875 24.7581 67.2398 24.2708ZM45.6977 28.635C45.1733 29.2758 44.5919 29.8667 43.9429 30.3816C43.3905 30.7804 42.7978 31.1167 42.1669 31.3755C41.6803 31.5464 41.1789 31.6673 40.6645 31.7058C40.35 31.6996 40.0399 31.6578 39.7377 31.5711C39.5374 31.4848 39.3483 31.3783 39.1701 31.252C39.0837 31.1707 39.003 31.0841 38.9275 30.9928C38.891 30.9299 38.8561 30.866 38.8249 30.8006C38.8152 30.7655 38.8047 30.7302 38.7962 30.6948C38.7938 30.6544 38.7924 30.6135 38.7914 30.573C38.8017 30.4973 38.8139 30.422 38.8286 30.347C38.8903 30.1558 38.9627 29.9687 39.0442 29.7849C39.5088 28.9019 40.1183 28.089 40.7366 27.305C40.8577 27.1538 40.9818 27.0053 41.1055 26.8564C41.4105 26.5057 41.7139 26.1534 42.0172 25.8012C43.2667 24.4198 44.6336 23.1472 46.1034 22.0004C46.2523 21.8876 46.4024 21.7767 46.5533 21.6667C46.6477 21.9284 46.7603 22.1826 46.8898 22.424C47.2165 23.0329 47.6495 23.5789 48.1652 24.0344C47.9361 24.6855 47.663 25.3221 47.3657 25.9438C46.8892 26.8878 46.3401 27.7944 45.6977 28.635ZM53.825 29.2405C53.1584 29.7748 52.4472 30.2704 51.6651 30.6177C51.4981 30.6796 51.3287 30.7281 51.1522 30.7534C51.0922 30.7487 51.0328 30.7403 50.9738 30.728C50.9468 30.7134 50.9198 30.6986 50.8939 30.6822C50.8879 30.6753 50.8823 30.6678 50.8763 30.6609C50.8703 30.6488 50.8635 30.6371 50.8579 30.625C50.8496 30.592 50.8406 30.5592 50.8336 30.5259C50.8292 30.4509 50.8272 30.3758 50.8273 30.3006C50.8478 30.1506 50.8766 30.0019 50.9094 29.854C51.0491 29.3522 51.2266 28.8636 51.4385 28.388C51.7944 27.6769 52.221 27.0058 52.6888 26.3632C53.3475 25.5009 54.0647 24.6954 54.8101 23.9096C55.0441 23.7205 55.2706 23.5219 55.4866 23.3128C55.6109 23.1926 55.7159 23.0445 55.8027 22.8842C56.4092 22.2741 57.0342 21.6822 57.6956 21.1324C58.2326 20.7065 58.8017 20.3096 59.4252 20.0234C59.6638 19.9358 59.9093 19.8716 60.162 19.8443C60.2745 19.8509 60.3857 19.8669 60.495 19.8939C60.5756 19.9335 60.6527 19.9789 60.7264 20.0302C60.7867 20.0922 60.843 20.1577 60.8955 20.2264C60.9342 20.299 60.9689 20.3733 61.0014 20.4487C61.0344 20.567 61.0617 20.6866 61.0834 20.8075C61.0897 20.9066 61.0926 21.0058 61.0922 21.1051C61.0876 21.146 61.0842 21.1871 61.0785 21.2276C59.267 23.4989 57.4462 25.7757 55.3784 27.82C54.8793 28.3135 54.3638 28.7903 53.825 29.2405ZM43.1943 49.9986C42.3867 51.2333 41.6153 52.4964 40.7769 53.7102C40.5892 53.9819 40.3965 54.2497 40.2001 54.5151C39.5327 55.3829 38.803 56.2008 37.9657 56.9083C37.5535 57.2306 37.1158 57.5226 36.6415 57.7442C36.3958 57.8347 36.143 57.8998 35.8829 57.9271C35.7541 57.9202 35.6272 57.9024 35.5023 57.8714C35.4405 57.8426 35.3799 57.8108 35.3214 57.7758C35.3049 57.7563 35.2892 57.7361 35.2734 57.716C35.2515 57.674 35.231 57.6312 35.2118 57.5879C35.2019 57.5481 35.1935 57.508 35.1854 57.4679C35.1814 57.3894 35.1798 57.3106 35.1804 57.2321C35.2042 57.0292 35.238 56.8281 35.281 56.6285C35.4424 56.0467 35.651 55.4752 35.8981 54.9243C36.343 54.0244 36.8785 53.1732 37.4708 52.3628C38.6724 50.7938 40.101 49.3857 41.5114 48.0068C42.9777 46.5735 44.496 45.1939 46.0475 43.8534C46.8854 43.1294 47.7342 42.4178 48.5895 41.7143C48.6799 41.6403 48.7713 41.5676 48.8619 41.4938C47.7994 43.0692 46.7387 44.6459 45.6852 46.2275C44.85 47.4813 44.019 48.7378 43.1943 49.9986ZM63.4679 33.6161C61.3732 34.0621 59.2833 34.5318 57.1992 35.0256C58.691 33.9041 60.1849 32.7859 61.6761 31.6637C62.5816 30.9824 63.4839 30.2969 64.3837 29.6079C64.8175 30.2708 65.3723 30.7643 66.1642 30.9803C66.9813 31.2031 67.8419 30.9184 68.5695 30.556C69.157 30.2632 69.6833 29.8553 70.192 29.4442C70.7504 28.993 71.2941 28.5236 71.808 28.0222C72.7877 27.0659 73.6512 26.0047 74.4388 24.8861C75.8336 22.9053 76.9119 20.6585 77.5897 18.3266C78.0043 18.0153 78.4245 17.7112 78.8544 17.4217C79.1215 17.2418 79.3932 17.0658 79.6717 16.9018C79.1391 18.0545 78.5436 19.1783 77.9453 20.2978C77.2301 21.6364 76.5017 22.9681 75.8044 24.316C75.4397 25.0211 75.0833 25.7307 74.748 26.4504C74.5826 26.8055 74.4656 27.1433 74.4378 27.5397C74.4139 27.8816 74.4318 28.2763 74.5906 28.5891C74.6943 28.7936 74.8279 28.9838 75.0188 29.1161C75.2881 29.3026 75.6592 29.2379 75.9183 29.0786C76.343 28.817 76.7217 28.4745 77.0875 28.1392C77.4682 27.7904 77.826 27.4168 78.1741 27.0357C79.046 26.081 79.8602 25.0741 80.6629 24.0613C81.2191 23.3594 81.7671 22.6509 82.3136 21.9414C81.0884 24.4922 79.9166 27.0716 78.8478 29.6923C78.6496 30.0751 78.4555 30.46 78.2656 30.8469C77.9339 30.9009 77.6022 30.9543 77.2706 31.0092C74.9271 31.3983 72.5876 31.8129 70.2533 32.2541C67.9864 32.6826 65.7243 33.1357 63.4679 33.6161ZM89.2539 22.38C89.0146 22.6262 88.7663 22.8635 88.5095 23.0914C88.1817 23.3626 87.8336 23.6145 87.4541 23.8062C87.3101 23.8611 87.1619 23.903 87.0096 23.926C86.9473 23.9216 86.8856 23.913 86.8247 23.8995C86.7914 23.8812 86.759 23.8615 86.7277 23.8403C86.6837 23.7911 86.6422 23.7402 86.6039 23.6864C86.5573 23.5922 86.5162 23.4952 86.479 23.3967C86.3911 23.0775 86.331 22.7513 86.2878 22.423C86.2831 22.3714 86.2783 22.3199 86.2743 22.2683C86.481 21.9704 86.6877 21.6725 86.8984 21.3775C87.5928 20.416 88.3081 19.4694 89.0562 18.549C89.7572 17.6866 90.4853 16.8441 91.2628 16.0495C91.6131 15.6913 91.9753 15.3447 92.3516 15.0138C92.8157 14.6241 93.311 14.2577 93.8551 13.9911C94.0332 13.9214 94.2176 13.8686 94.4068 13.8426C94.469 13.8466 94.5306 13.8552 94.5914 13.8681C94.6226 13.8851 94.6534 13.9027 94.683 13.9226C94.704 13.9471 94.7247 13.9717 94.7441 13.9976C94.7666 14.0448 94.7874 14.0925 94.8068 14.141C94.8261 14.2174 94.843 14.2944 94.8571 14.3719C94.859 14.4196 94.8599 14.4675 94.8599 14.5152C94.854 14.5562 94.8471 14.5973 94.84 14.6382C94.8186 14.704 94.7946 14.7691 94.7698 14.8336C94.5173 15.3179 94.1915 15.7768 93.899 16.2325C93.5261 16.8134 93.1453 17.3894 92.7557 17.9592C92.5294 18.2901 92.2991 18.6182 92.0661 18.9446C91.1988 20.1431 90.2856 21.3186 89.2539 22.38ZM99.8232 20.7409C99.816 20.7561 99.8088 20.7713 99.8017 20.7863C99.8038 20.7773 99.806 20.7684 99.8081 20.7598C99.9247 20.482 99.8752 20.6313 99.8232 20.7409ZM99.7516 20.8823C99.7079 20.9669 99.6612 21.0497 99.6114 21.1306C99.4326 21.3705 99.2333 21.5942 99.0193 21.8034C98.5297 22.2368 97.9883 22.6113 97.4172 22.9286C97.2698 23.0106 97.1193 23.0867 96.9679 23.1611C96.5854 23.3345 96.1899 23.4861 95.7841 23.5964C96.0623 23.2899 96.3523 22.9941 96.6454 22.7052C96.8628 22.491 97.0854 22.282 97.3089 22.0743C98.0598 21.3893 98.8332 20.7288 99.6219 20.0859C99.6657 20.3512 99.7107 20.6164 99.7516 20.8823ZM125.172 17.8956C125.159 17.9309 125.147 17.9666 125.132 18.0015C125.005 18.2892 125.077 18.1177 125.172 17.8956Z" fill="black"/>
<path d="M135.314 7.36559C135.408 7.27027 135.513 7.14847 135.642 7.0055C135.772 6.86252 135.901 6.71425 136.042 6.55538C136.177 6.39652 136.306 6.24295 136.424 6.09998C136.541 5.957 136.641 5.82991 136.723 5.724C136.805 5.62338 136.846 5.55454 136.858 5.51748C136.87 5.48041 136.876 5.44864 136.876 5.42216C136.876 5.32154 136.799 5.26859 136.647 5.26859C136.435 5.26859 136.165 5.32684 135.842 5.44334L135.848 5.491C135.848 5.51748 135.83 5.58102 135.789 5.68693C135.754 5.79813 135.707 5.93582 135.648 6.09998C135.502 6.5395 135.39 6.96313 135.314 7.36559ZM134.844 9.06013C135.114 9.06013 135.384 8.97011 135.654 8.79006C135.924 8.61002 136.183 8.36113 136.429 8.04341C135.902 8.22762 135.521 8.64906 135.196 8.79536L135.114 8.80595C134.897 8.80595 134.744 8.67356 134.662 8.41409C134.597 8.22875 134.562 8.00104 134.562 7.73097C134.562 7.2332 134.627 6.73543 134.762 6.24295C134.832 5.94111 134.914 5.68693 135.014 5.47511C135.114 5.26859 135.202 5.14679 135.29 5.10973L135.284 5.06736C135.284 5.03559 135.302 5.00911 135.343 4.98264C135.396 4.94557 135.531 4.9032 135.736 4.85554C135.93 4.82907 136.101 4.81848 136.247 4.81848C136.476 4.81848 136.688 4.84495 136.876 4.89261C137.087 4.95616 137.24 5.06207 137.345 5.21034C137.404 5.30566 137.434 5.40627 137.434 5.50159C137.434 5.81402 137.193 6.25354 136.711 6.81486C136.517 7.03197 136.294 7.27556 136.036 7.54563L136.441 7.43443C136.588 7.39736 136.735 7.38147 136.876 7.38147C137.017 7.14318 137.14 6.89959 137.257 6.656C137.475 6.17941 137.633 5.75048 137.721 5.3745C137.751 5.22093 137.768 5.08325 137.768 4.97204C137.745 4.69139 137.645 4.50075 137.469 4.38954C137.357 4.326 137.216 4.29423 137.046 4.29423C136.852 4.29423 136.641 4.33659 136.4 4.42132C136.112 4.52193 135.825 4.65961 135.531 4.84495C135.237 5.03029 134.985 5.22623 134.779 5.43804C134.544 5.67104 134.38 5.88286 134.298 6.0735C134.057 6.77779 133.922 7.38147 133.904 7.87395C133.904 8.06459 133.916 8.22345 133.945 8.35584C134.004 8.64179 134.145 8.84302 134.38 8.95952C134.509 9.02836 134.662 9.06013 134.844 9.06013ZM135.196 9.66381C134.967 9.66381 134.75 9.63204 134.538 9.57379C134.204 9.48377 133.916 9.3249 133.663 9.0972C133.399 8.8589 133.211 8.55177 133.1 8.17579C133.017 7.9322 132.982 7.66743 132.982 7.38677C132.982 7.20672 132.994 7.01079 133.029 6.80957C132.994 6.79897 132.959 6.78838 132.929 6.7725C132.841 6.72484 132.794 6.63481 132.794 6.51302C132.794 6.31179 132.906 6.04702 133.129 5.71341C133.299 5.45923 133.517 5.20504 133.787 4.94557C134.051 4.68609 134.351 4.45839 134.685 4.25186C135.243 3.91295 135.801 3.7435 136.359 3.7435C136.6 3.7435 136.823 3.75939 137.04 3.80175C137.663 3.91825 138.103 4.13007 138.356 4.4425C138.473 4.58548 138.532 4.76023 138.532 4.96675V5.06736C138.45 5.88286 138.25 6.656 137.939 7.39206C137.757 7.82629 137.533 8.20756 137.269 8.54647C136.688 9.29313 135.995 9.66381 135.196 9.66381Z" fill="black"/>
<path d="M129.826 26.3712C128.983 26.2976 128.12 26.304 127.288 26.4136C126.968 26.4558 126.694 26.6188 126.512 26.8139C126.308 27.0344 126.173 27.3648 126.194 27.637C126.213 27.8883 126.287 28.1764 126.533 28.366C126.747 28.5316 127.029 28.6474 127.346 28.6057C127.807 28.545 128.274 28.5173 128.743 28.5193C128.924 28.526 129.104 28.5359 129.284 28.5516C129.61 28.5801 129.89 28.514 130.135 28.3514C130.393 28.1793 130.594 27.8862 130.645 27.6297C130.699 27.3619 130.699 27.0566 130.517 26.8095C130.374 26.614 130.145 26.3989 129.826 26.3712Z" fill="black"/>
</svg>
