<svg width="208" height="40" viewBox="0 0 208 40" fill="none" xmlns="http://www.w3.org/2000/svg">
<g clip-path="url(#clip0_37_205)">
<path d="M200.342 12.9905C202.486 12.9905 204.21 13.6517 205.513 14.9742C206.838 16.2758 207.5 18.1021 207.5 20.4532V30.687H203.085V21.0515C203.085 19.687 202.739 18.6479 202.045 17.9342C201.351 17.1994 200.405 16.8321 199.207 16.8321C198.009 16.8321 197.052 17.1994 196.337 17.9342C195.644 18.6479 195.297 19.687 195.297 21.0515V30.687H190.882V21.0515C190.882 19.687 190.535 18.6479 189.841 17.9342C189.148 17.1994 188.202 16.8321 187.004 16.8321C185.784 16.8321 184.817 17.1994 184.102 17.9342C183.409 18.6479 183.062 19.687 183.062 21.0515V30.687H178.647V13.2424H183.062V15.3521C183.629 14.6174 184.355 14.0401 185.238 13.6202C186.142 13.2004 187.13 12.9905 188.202 12.9905C189.568 12.9905 190.787 13.2843 191.86 13.8721C192.932 14.4389 193.762 15.2576 194.351 16.3282C194.918 15.3206 195.738 14.5124 196.81 13.9036C197.903 13.2948 199.081 12.9905 200.342 12.9905Z" fill="#170E57"/>
<path d="M175.395 13.2424V30.687H170.949V28.4828C170.381 29.2385 169.635 29.8368 168.71 30.2777C167.806 30.6975 166.818 30.9074 165.746 30.9074C164.38 30.9074 163.171 30.624 162.12 30.0572C161.069 29.4695 160.238 28.6193 159.629 27.5067C159.04 26.3731 158.746 25.0296 158.746 23.4761V13.2424H163.16V22.8464C163.16 24.2319 163.507 25.3025 164.201 26.0582C164.895 26.7929 165.841 27.1603 167.039 27.1603C168.258 27.1603 169.215 26.7929 169.908 26.0582C170.602 25.3025 170.949 24.2319 170.949 22.8464V13.2424H175.395Z" fill="#170E57"/>
<path d="M149.509 30.9704C148.08 30.9704 146.797 30.7185 145.662 30.2147C144.527 29.6899 143.623 28.9866 142.95 28.105C142.298 27.2233 141.941 26.2471 141.878 25.1765H146.324C146.408 25.8483 146.734 26.4046 147.302 26.8454C147.89 27.2863 148.616 27.5067 149.477 27.5067C150.318 27.5067 150.97 27.3387 151.433 27.0029C151.916 26.667 152.158 26.2366 152.158 25.7118C152.158 25.145 151.863 24.7252 151.275 24.4523C150.707 24.1584 149.793 23.8435 148.531 23.5076C147.228 23.1927 146.156 22.8674 145.315 22.5315C144.495 22.1956 143.781 21.6813 143.171 20.9885C142.582 20.2958 142.288 19.3616 142.288 18.1861C142.288 17.2204 142.561 16.3387 143.108 15.541C143.675 14.7433 144.474 14.1135 145.504 13.6517C146.555 13.1899 147.785 12.959 149.194 12.959C151.275 12.959 152.936 13.4838 154.176 14.5334C155.416 15.562 156.099 16.958 156.226 18.7214H152C151.937 18.0286 151.643 17.4828 151.117 17.084C150.613 16.6641 149.929 16.4542 149.068 16.4542C148.269 16.4542 147.649 16.6011 147.207 16.895C146.787 17.1889 146.576 17.5983 146.576 18.1231C146.576 18.7109 146.871 19.1622 147.459 19.4771C148.048 19.771 148.962 20.0754 150.203 20.3903C151.464 20.7052 152.505 21.0305 153.325 21.3664C154.144 21.7023 154.849 22.2271 155.437 22.9408C156.047 23.6336 156.362 24.5573 156.383 25.7118C156.383 26.7195 156.099 27.6221 155.532 28.4198C154.985 29.2176 154.186 29.8473 153.135 30.3092C152.105 30.75 150.896 30.9704 149.509 30.9704Z" fill="#170E57"/>
<path d="M126.971 15.7614C127.539 14.9637 128.317 14.3025 129.305 13.7777C130.314 13.2319 131.459 12.959 132.742 12.959C134.234 12.959 135.58 13.3263 136.778 14.0611C137.997 14.7958 138.954 15.8454 139.648 17.2099C140.362 18.5534 140.72 20.1174 140.72 21.9017C140.72 23.6861 140.362 25.271 139.648 26.6565C138.954 28.021 137.997 29.0811 136.778 29.8368C135.58 30.5926 134.234 30.9704 132.742 30.9704C131.459 30.9704 130.324 30.708 129.336 30.1832C128.369 29.6584 127.581 28.9971 126.971 28.1994V39H122.557V13.2424H126.971V15.7614ZM136.21 21.9017C136.21 20.8521 135.99 19.9494 135.548 19.1937C135.128 18.417 134.56 17.8292 133.845 17.4303C133.152 17.0315 132.395 16.8321 131.575 16.8321C130.776 16.8321 130.019 17.042 129.305 17.4618C128.611 17.8607 128.043 18.4485 127.602 19.2252C127.181 20.0019 126.971 20.9151 126.971 21.9647C126.971 23.0143 127.181 23.9275 127.602 24.7042C128.043 25.4809 128.611 26.0792 129.305 26.499C130.019 26.8979 130.776 27.0973 131.575 27.0973C132.395 27.0973 133.152 26.8874 133.845 26.4676C134.56 26.0477 135.128 25.4494 135.548 24.6727C135.99 23.896 136.21 22.9723 136.21 21.9017Z" fill="#170E57"/>
<path d="M117.123 11.1641C116.345 11.1641 115.693 10.9227 115.168 10.4399C114.663 9.93607 114.411 9.31679 114.411 8.58206C114.411 7.84733 114.663 7.23855 115.168 6.75572C115.693 6.25191 116.345 6 117.123 6C117.901 6 118.542 6.25191 119.046 6.75572C119.572 7.23855 119.835 7.84733 119.835 8.58206C119.835 9.31679 119.572 9.93607 119.046 10.4399C118.542 10.9227 117.901 11.1641 117.123 11.1641ZM119.299 13.2424V30.687H114.884V13.2424H119.299Z" fill="#170E57"/>
<path d="M103.636 30.9704C101.955 30.9704 100.441 30.6031 99.0955 29.8683C97.7501 29.1126 96.6885 28.0525 95.9107 26.688C95.1539 25.3235 94.7755 23.749 94.7755 21.9647C94.7755 20.1803 95.1644 18.6059 95.9422 17.2414C96.741 15.8769 97.8237 14.8273 99.1901 14.0926C100.557 13.3368 102.081 12.959 103.762 12.959C105.444 12.959 106.968 13.3368 108.335 14.0926C109.701 14.8273 110.773 15.8769 111.551 17.2414C112.35 18.6059 112.749 20.1803 112.749 21.9647C112.749 23.749 112.339 25.3235 111.52 26.688C110.721 28.0525 109.628 29.1126 108.24 29.8683C106.874 30.6031 105.339 30.9704 103.636 30.9704ZM103.636 27.1288C104.435 27.1288 105.181 26.9399 105.875 26.562C106.59 26.1632 107.157 25.5754 107.578 24.7987C107.998 24.0219 108.209 23.0773 108.209 21.9647C108.209 20.3063 107.767 19.0363 106.884 18.1546C106.022 17.2519 104.961 16.8006 103.699 16.8006C102.438 16.8006 101.376 17.2519 100.514 18.1546C99.6736 19.0363 99.2532 20.3063 99.2532 21.9647C99.2532 23.6231 99.6631 24.9036 100.483 25.8063C101.324 26.688 102.375 27.1288 103.636 27.1288Z" fill="#170E57"/>
<path d="M84.6315 30.9704C82.9497 30.9704 81.4361 30.6031 80.0907 29.8683C78.7453 29.1126 77.6837 28.0525 76.9059 26.688C76.1491 25.3235 75.7707 23.749 75.7707 21.9647C75.7707 20.1803 76.1596 18.6059 76.9374 17.2414C77.7362 15.8769 78.8189 14.8273 80.1853 14.0926C81.5517 13.3368 83.0758 12.959 84.7576 12.959C86.4394 12.959 87.9635 13.3368 89.3299 14.0926C90.6963 14.8273 91.7684 15.8769 92.5463 17.2414C93.3451 18.6059 93.7445 20.1803 93.7445 21.9647C93.7445 23.749 93.3346 25.3235 92.5147 26.688C91.7159 28.0525 90.6227 29.1126 89.2353 29.8683C87.8689 30.6031 86.3343 30.9704 84.6315 30.9704ZM84.6315 27.1288C85.4303 27.1288 86.1766 26.9399 86.8703 26.562C87.5851 26.1632 88.1527 25.5754 88.5731 24.7987C88.9935 24.0219 89.2038 23.0773 89.2038 21.9647C89.2038 20.3063 88.7623 19.0363 87.8794 18.1546C87.0175 17.2519 85.9559 16.8006 84.6945 16.8006C83.4332 16.8006 82.3716 17.2519 81.5097 18.1546C80.6688 19.0363 80.2484 20.3063 80.2484 21.9647C80.2484 23.6231 80.6583 24.9036 81.4782 25.8063C82.319 26.688 83.3701 27.1288 84.6315 27.1288Z" fill="#170E57"/>
<path d="M65.6267 30.9704C63.9449 30.9704 62.4313 30.6031 61.0859 29.8683C59.7405 29.1126 58.6789 28.0525 57.9011 26.688C57.1443 25.3235 56.7659 23.749 56.7659 21.9647C56.7659 20.1803 57.1548 18.6059 57.9326 17.2414C58.7314 15.8769 59.8141 14.8273 61.1805 14.0926C62.5469 13.3368 64.071 12.959 65.7528 12.959C67.4346 12.959 68.9587 13.3368 70.3251 14.0926C71.6915 14.8273 72.7636 15.8769 73.5415 17.2414C74.3403 18.6059 74.7397 20.1803 74.7397 21.9647C74.7397 23.749 74.3298 25.3235 73.5099 26.688C72.7111 28.0525 71.6179 29.1126 70.2305 29.8683C68.8641 30.6031 67.3295 30.9704 65.6267 30.9704ZM65.6267 27.1288C66.4255 27.1288 67.1718 26.9399 67.8655 26.562C68.5803 26.1632 69.1479 25.5754 69.5683 24.7987C69.9887 24.0219 70.199 23.0773 70.199 21.9647C70.199 20.3063 69.7575 19.0363 68.8746 18.1546C68.0127 17.2519 66.9511 16.8006 65.6897 16.8006C64.4284 16.8006 63.3668 17.2519 62.5049 18.1546C61.664 19.0363 61.2436 20.3063 61.2436 21.9647C61.2436 23.6231 61.6535 24.9036 62.4734 25.8063C63.3142 26.688 64.3653 27.1288 65.6267 27.1288Z" fill="#170E57"/>
<path d="M48.9146 27.1918H56.1672V30.687H44.5V8.70798H48.9146V27.1918Z" fill="#170E57"/>
<path d="M76.9355 33.0303C78.0537 36.3511 81.1967 38.7431 84.8991 38.7431H85.3599C89.999 38.7431 93.7598 34.9877 93.7598 30.3551V29.8811H89.2058V30.3551C89.2058 32.4761 87.4839 34.1956 85.3599 34.1956H84.8991C83.8166 34.1956 82.8386 33.749 82.1397 33.0303H76.9355Z" fill="#170E57"/>
<path d="M15.5 0L20.9545 5.33333L0.5 25.3333V14.6667L15.5 0Z" fill="#06D1D4"/>
<path d="M3.40827 28.177L15.5 40L30.5 25.3334V14.6667L20.9545 5.33337L0.5 25.3334L0.504169 25.3375L20.9545 5.33337V20.6667L11.75 29.6667V20.1324L3.40827 28.177Z" fill="#3628A0"/>
</g>
<defs>
<clipPath id="clip0_37_205">
<rect width="207" height="40" fill="white" transform="translate(0.5)"/>
</clipPath>
</defs>
</svg>
